<?xml version="1.0" standalone="no"?><!DOCTYPE svg PUBLIC "-//W3C//DTD SVG 1.1//EN" "http://www.w3.org/Graphics/SVG/1.1/DTD/svg11.dtd"><svg t="1619055237570" class="icon" viewBox="0 0 1024 1024" version="1.1" xmlns="http://www.w3.org/2000/svg" p-id="10920" xmlns:xlink="http://www.w3.org/1999/xlink" width="1024" height="1024"><defs><style type="text/css"></style></defs><path d="M534.65 935.69c0.19-0.23 0.36-0.46 0.55-0.69 0.14-0.18 0.28-0.35 0.41-0.53 0.2-0.26 0.38-0.53 0.57-0.8 0.11-0.16 0.22-0.31 0.33-0.47 0.19-0.28 0.36-0.56 0.54-0.84l0.3-0.48c0.17-0.28 0.33-0.56 0.49-0.85 0.1-0.17 0.2-0.35 0.29-0.52l0.42-0.81 0.3-0.6c0.12-0.25 0.23-0.5 0.34-0.75 0.1-0.23 0.21-0.47 0.31-0.71 0.09-0.22 0.18-0.45 0.26-0.67 0.1-0.27 0.21-0.54 0.31-0.82 0.07-0.19 0.13-0.39 0.2-0.59 0.1-0.3 0.2-0.61 0.3-0.92l0.15-0.52c0.09-0.33 0.19-0.66 0.27-1 0.04-0.16 0.07-0.32 0.11-0.49 0.08-0.35 0.16-0.69 0.23-1.04l0.09-0.49 0.18-1.04c0.03-0.19 0.05-0.38 0.07-0.56 0.04-0.32 0.09-0.65 0.12-0.98l0.06-0.75 0.06-0.81c0.02-0.47 0.03-0.94 0.04-1.41v-0.17-0.17c0-0.47-0.01-0.94-0.04-1.41-0.01-0.27-0.04-0.54-0.06-0.81-0.02-0.25-0.03-0.5-0.06-0.75-0.03-0.33-0.08-0.65-0.12-0.98-0.02-0.19-0.04-0.38-0.07-0.56-0.05-0.35-0.11-0.7-0.18-1.04l-0.09-0.49c-0.07-0.35-0.15-0.69-0.23-1.04-0.04-0.16-0.07-0.32-0.11-0.49-0.08-0.33-0.18-0.67-0.27-1l-0.15-0.52c-0.09-0.31-0.19-0.61-0.3-0.92-0.07-0.2-0.13-0.39-0.2-0.59-0.1-0.27-0.2-0.54-0.31-0.82-0.09-0.22-0.17-0.45-0.26-0.67-0.1-0.24-0.2-0.47-0.31-0.71-0.11-0.25-0.22-0.5-0.34-0.75l-0.3-0.6c-0.14-0.27-0.27-0.54-0.42-0.81-0.09-0.18-0.19-0.35-0.29-0.52-0.16-0.28-0.32-0.57-0.49-0.85l-0.3-0.48c-0.18-0.28-0.35-0.56-0.54-0.84-0.11-0.16-0.22-0.32-0.33-0.47-0.19-0.27-0.37-0.53-0.57-0.8-0.13-0.18-0.27-0.35-0.41-0.53-0.18-0.23-0.36-0.47-0.55-0.69-0.2-0.24-0.4-0.47-0.6-0.7-0.14-0.16-0.27-0.32-0.42-0.48-0.36-0.4-0.73-0.79-1.11-1.17L442 802.24c-12.5-12.5-32.76-12.5-45.25 0-12.5 12.5-12.5 32.76 0 45.25l25.46 25.46c-65.12-15.79-124.86-49.14-173.44-97.73C179.02 705.48 140.6 612.74 140.6 514.1c0-17.67-14.33-32-32-32s-32 14.33-32 32c0 58.48 11.46 115.23 34.06 168.67 21.83 51.6 53.06 97.94 92.85 137.72s86.12 71.02 137.72 92.85c53.44 22.6 110.19 34.06 168.67 34.06 0.53 0 1.06-0.01 1.58-0.04 0.25-0.01 0.5-0.04 0.75-0.05l0.81-0.06c0.31-0.03 0.62-0.07 0.93-0.11 0.2-0.03 0.41-0.05 0.61-0.08 0.34-0.05 0.67-0.11 1-0.17l0.53-0.09c0.34-0.07 0.68-0.14 1.01-0.22l0.51-0.12c0.33-0.08 0.65-0.17 0.97-0.26 0.18-0.05 0.37-0.1 0.55-0.16 0.3-0.09 0.6-0.19 0.89-0.29 0.2-0.07 0.41-0.14 0.61-0.21 0.27-0.09 0.53-0.2 0.79-0.3 0.23-0.09 0.46-0.18 0.7-0.27 0.23-0.09 0.45-0.2 0.68-0.3 0.26-0.11 0.52-0.23 0.77-0.35 0.2-0.09 0.39-0.19 0.58-0.29 0.28-0.14 0.56-0.28 0.83-0.43 0.17-0.09 0.33-0.19 0.5-0.28 0.29-0.16 0.58-0.33 0.87-0.5 0.15-0.09 0.3-0.19 0.46-0.29 0.29-0.18 0.58-0.36 0.86-0.55 0.15-0.1 0.3-0.21 0.46-0.32 0.27-0.19 0.55-0.38 0.81-0.58 0.17-0.13 0.34-0.27 0.51-0.4 0.24-0.18 0.48-0.37 0.71-0.56 0.23-0.19 0.46-0.39 0.69-0.59 0.16-0.14 0.33-0.28 0.5-0.43 0.79-0.71 1.54-1.46 2.25-2.25l0.42-0.48c0.21-0.21 0.41-0.44 0.61-0.68zM909.14 345.43c-21.83-51.6-53.06-97.94-92.85-137.72s-86.12-71.02-137.72-92.85C625.13 92.26 568.38 80.8 509.9 80.8h-0.08c-0.5 0-1 0.01-1.5 0.04-0.26 0.01-0.51 0.04-0.77 0.06-0.26 0.02-0.53 0.03-0.79 0.06-0.32 0.03-0.63 0.07-0.95 0.11-0.2 0.03-0.39 0.05-0.59 0.08-0.34 0.05-0.68 0.11-1.01 0.17l-0.52 0.09c-0.34 0.07-0.68 0.14-1.01 0.22l-0.51 0.12c-0.33 0.08-0.65 0.17-0.97 0.26-0.18 0.05-0.37 0.1-0.55 0.16-0.3 0.09-0.6 0.19-0.89 0.29-0.2 0.07-0.41 0.13-0.61 0.21-0.27 0.09-0.53 0.2-0.79 0.3-0.23 0.09-0.47 0.18-0.7 0.27-0.23 0.09-0.45 0.19-0.68 0.29-0.26 0.11-0.52 0.23-0.78 0.35-0.19 0.09-0.38 0.19-0.58 0.29-0.28 0.14-0.56 0.28-0.84 0.43-0.17 0.09-0.33 0.18-0.49 0.28-0.29 0.16-0.59 0.33-0.87 0.5-0.15 0.09-0.3 0.18-0.44 0.28-0.29 0.18-0.59 0.37-0.87 0.56-0.15 0.1-0.29 0.2-0.44 0.3-0.28 0.19-0.56 0.39-0.83 0.59-0.17 0.12-0.33 0.25-0.49 0.38-0.25 0.19-0.49 0.38-0.73 0.58-0.22 0.18-0.43 0.37-0.65 0.56-0.18 0.15-0.36 0.3-0.53 0.46-0.79 0.71-1.53 1.46-2.25 2.25l-0.45 0.51c-0.19 0.22-0.39 0.44-0.57 0.67-0.19 0.23-0.37 0.47-0.56 0.71-0.13 0.17-0.27 0.34-0.4 0.51-0.2 0.27-0.39 0.54-0.57 0.81a20.026 20.026 0 0 0-0.86 1.31c-0.1 0.16-0.2 0.31-0.29 0.47-0.17 0.28-0.33 0.57-0.49 0.85-0.1 0.17-0.19 0.34-0.29 0.52-0.14 0.27-0.28 0.54-0.42 0.82l-0.3 0.6c-0.12 0.25-0.23 0.5-0.34 0.75-0.1 0.23-0.21 0.47-0.3 0.7-0.09 0.22-0.18 0.45-0.27 0.67-0.1 0.27-0.21 0.54-0.31 0.81-0.07 0.2-0.13 0.39-0.2 0.59-0.1 0.3-0.2 0.61-0.29 0.91-0.05 0.17-0.1 0.35-0.15 0.53l-0.27 0.99c-0.04 0.16-0.08 0.33-0.11 0.49-0.08 0.34-0.16 0.69-0.23 1.04l-0.09 0.5c-0.06 0.34-0.12 0.69-0.17 1.03-0.03 0.19-0.05 0.38-0.07 0.58l-0.12 0.96c-0.03 0.26-0.04 0.52-0.06 0.78l-0.06 0.78c-0.02 0.5-0.04 1-0.04 1.5V112.9c0 0.5 0.01 1 0.04 1.49 0.01 0.26 0.04 0.52 0.06 0.77 0.02 0.26 0.03 0.52 0.06 0.78 0.03 0.32 0.07 0.63 0.11 0.95 0.03 0.2 0.05 0.4 0.08 0.59 0.05 0.34 0.11 0.68 0.17 1.02 0.03 0.17 0.06 0.34 0.09 0.52 0.07 0.34 0.14 0.68 0.22 1.02 0.04 0.17 0.07 0.34 0.12 0.51 0.08 0.33 0.17 0.65 0.26 0.98l0.15 0.54c0.09 0.3 0.19 0.6 0.29 0.9 0.07 0.2 0.13 0.41 0.21 0.61 0.09 0.26 0.2 0.53 0.3 0.79 0.09 0.23 0.18 0.47 0.28 0.7 0.09 0.23 0.19 0.45 0.29 0.68 0.11 0.26 0.23 0.52 0.35 0.78 0.09 0.19 0.19 0.38 0.28 0.57 0.14 0.28 0.28 0.57 0.43 0.85l0.27 0.48c0.17 0.3 0.33 0.6 0.51 0.89 0.09 0.14 0.18 0.28 0.27 0.43 0.19 0.3 0.37 0.6 0.57 0.89 0.09 0.14 0.19 0.27 0.29 0.41 0.2 0.29 0.4 0.58 0.61 0.86 0.11 0.15 0.23 0.3 0.34 0.44 0.2 0.26 0.4 0.52 0.61 0.78 0.16 0.19 0.32 0.37 0.48 0.56l0.54 0.63c0.29 0.32 0.59 0.64 0.9 0.95 0.06 0.06 0.12 0.13 0.19 0.2L577.81 226c6.25 6.25 14.44 9.37 22.63 9.37s16.38-3.12 22.63-9.37c12.5-12.5 12.5-32.76 0-45.25l-25.46-25.46c65.12 15.79 124.86 49.14 173.44 97.73 69.74 69.7 108.15 162.44 108.15 261.08 0 17.67 14.33 32 32 32s32-14.33 32-32c0-58.48-11.46-115.23-34.06-168.67z" fill="#ffffff" p-id="10921"></path><path d="M299.9 688.16h160.54c8.84 0 16-7.16 16-16s-7.16-16-16-16H315.9V527.54H460.44c8.28 0 15.1-6.3 15.92-14.36 0.05-0.54 0.08-1.08 0.08-1.64V350.93c0-8.84-7.16-16-16-16H299.9c-8.84 0-16 7.16-16 16s7.16 16 16 16h144.54v128.62H299.9c-8.84 0-16 7.16-16 16v160.62c0 8.83 7.16 15.99 16 15.99zM620.11 334.95c-0.15 0-0.29-0.02-0.43-0.02h-97.84c-0.42 0-0.83 0.03-1.25 0.06-0.41-0.03-0.83-0.06-1.25-0.06-8.84 0-16 7.16-16 16v317.28c0 8.84 7.16 16 16 16 0.42 0 0.83-0.03 1.25-0.06 0.41 0.03 0.83 0.06 1.25 0.06h97.84c0.15 0 0.29-0.02 0.43-0.02 32.18-0.46 61.87-19.53 83.71-53.85 20.69-32.5 32.08-75.39 32.08-120.77 0-45.38-11.39-88.27-32.08-120.77-21.84-34.32-51.53-53.39-83.71-53.85z m56.72 278.2c-16.03 25.19-36.6 39.06-57.91 39.06h-83.58V366.93h83.58c21.31 0 41.87 13.87 57.91 39.06 17.46 27.43 27.07 64.22 27.07 103.58 0 39.37-9.62 76.15-27.07 103.58z" fill="#ffffff" p-id="10922"></path></svg>